<?xml version="1.0" encoding="utf-8"?><svg width="34" height="46.34" viewBox="0 0 34 46.34" xmlns="http://www.w3.org/2000/svg" xmlns:xlink="http://www.w3.org/1999/xlink"><svg viewBox="11023 4610 33.484 46.339" width="33.48" height="46.34" id="bitcoin" xmlns="http://www.w3.org/2000/svg"><defs><style>.acls-1{fill:#fff}</style></defs><g id="abitcoin-logo" transform="translate(10957.107 4610)"><path id="aPath_563" data-name="Path 563" class="acls-1" d="M98.058 24.31a8.362 8.362 0 0 0-4.873-2.868q4.15-2.117 3.648-7.185a7.1 7.1 0 0 0-1.017-3.188 6.38 6.38 0 0 0-2.3-2.172 12.648 12.648 0 0 0-3.147-1.253 24.828 24.828 0 0 0-3.9-.626V0h-4.285v6.823q-1.114 0-3.4.056V0H74.5v7.018q-.919.028-2.7.028l-5.9-.028v4.567h3.091a2.212 2.212 0 0 1 2.478 1.894v7.993a2.831 2.831 0 0 1 .446.028h-.446v11.194a1.487 1.487 0 0 1-1.615 1.42h-3.097l-.863 5.1h5.57q.529 0 1.532.013t1.5.014v7.1h4.29v-7.02q1.169.029 3.4.028v6.99h4.288v-7.1a33.34 33.34 0 0 0 4.052-.418 16.489 16.489 0 0 0 3.384-.961 9.131 9.131 0 0 0 2.7-1.629 7.688 7.688 0 0 0 1.8-2.478 10.536 10.536 0 0 0 .9-3.481q.364-3.872-1.252-5.962zM78.87 11.89q.2 0 1.1-.014t1.5-.028q.6-.014 1.616.07a15.366 15.366 0 0 1 1.712.223 9.54 9.54 0 0 1 1.531.459 4.151 4.151 0 0 1 1.336.78 3.868 3.868 0 0 1 .849 1.17 3.651 3.651 0 0 1 .348 1.629 3.874 3.874 0 0 1-.25 1.421 2.677 2.677 0 0 1-.752 1.072 7.617 7.617 0 0 1-1.031.752 4.719 4.719 0 0 1-1.351.515q-.821.2-1.434.306a11.739 11.739 0 0 1-1.532.153q-.919.042-1.393.056t-1.3 0q-.822-.014-.961-.014v-8.55zm11.711 18.965a3.96 3.96 0 0 1-.682 1.115 3.868 3.868 0 0 1-1.1.835 9.436 9.436 0 0 1-1.323.585 10.647 10.647 0 0 1-1.545.39q-.906.167-1.588.237t-1.629.112q-.946.041-1.476.041t-1.338-.015q-.808-.013-1.031-.013v-9.414q.223 0 1.323-.028t1.8-.027q.7 0 1.922.083a16.42 16.42 0 0 1 2.061.25 13.549 13.549 0 0 1 1.824.515 5.289 5.289 0 0 1 1.6.849 4.179 4.179 0 0 1 1.03 1.281 3.978 3.978 0 0 1 .153 3.2z"/></g></svg></svg>