<?xml version="1.0" encoding="utf-8"?>
<!-- Generator: Adobe Illustrator 21.1.0, SVG Export Plug-In . SVG Version: 6.00 Build 0)  -->
<svg version="1.1" id="Layer_1" xmlns="http://www.w3.org/2000/svg" xmlns:xlink="http://www.w3.org/1999/xlink" x="0px" y="0px"
	 width="9.2px" height="4.9px" viewBox="0 0 9.2 4.9" style="enable-background:new 0 0 9.2 4.9;" xml:space="preserve">
<style type="text/css">
	.st0{fill:#8D7E58;}
</style>
<path class="st0" d="M4.8,4.8l4.3-4.3c0.1-0.1,0.1-0.3,0-0.4C9,0,8.9,0,8.7,0.1L4.6,4.2L0.4,0.1C0.3,0,0.2,0,0.1,0.1c0,0,0,0,0,0
	C0,0.1,0,0.2,0,0.3c0,0.1,0,0.1,0.1,0.2l4.3,4.3C4.5,4.9,4.7,4.9,4.8,4.8C4.8,4.8,4.8,4.8,4.8,4.8z"/>
</svg>
