<?xml version="1.0" encoding="utf-8"?>
<!-- Generator: Adobe Illustrator 21.1.0, SVG Export Plug-In . SVG Version: 6.00 Build 0)  -->
<svg version="1.1" id="Layer_1" xmlns="http://www.w3.org/2000/svg" xmlns:xlink="http://www.w3.org/1999/xlink" x="0px" y="0px"
	 width="19.1px" height="36.2px" viewBox="0 0 19.1 36.2" style="enable-background:new 0 0 19.1 36.2;" xml:space="preserve">
<style type="text/css">
	.st0{fill:#9E8D62;}
</style>
<g>
	<path class="st0" d="M18.8,17.4L1.8,0.3c-0.4-0.4-1.1-0.4-1.5,0s-0.4,1.1,0,1.5l16.4,16.4L0.3,34.5c-0.4,0.4-0.4,1,0,1.4
		c0,0,0,0,0,0c0.2,0.2,0.5,0.3,0.7,0.3c0.3,0,0.5-0.1,0.7-0.3l17.1-17.1C19.2,18.4,19.2,17.8,18.8,17.4z"/>
	<path class="st0" d="M18.8,17.4L1.8,0.3c-0.4-0.4-1.1-0.4-1.5,0s-0.4,1.1,0,1.5l16.4,16.4L0.3,34.5c-0.4,0.4-0.4,1,0,1.4
		c0,0,0,0,0,0c0.2,0.2,0.5,0.3,0.7,0.3c0.3,0,0.5-0.1,0.7-0.3l17.1-17.1C19.2,18.4,19.2,17.8,18.8,17.4z"/>
</g>
</svg>
