<?xml version="1.0" encoding="utf-8"?>
<!-- Generator: Adobe Illustrator 21.1.0, SVG Export Plug-In . SVG Version: 6.00 Build 0)  -->
<svg version="1.1" id="Layer_1" xmlns="http://www.w3.org/2000/svg" xmlns:xlink="http://www.w3.org/1999/xlink" x="0px" y="0px"
	 width="82px" height="22px" viewBox="0 0 82 22" style="enable-background:new 0 0 82 22;" xml:space="preserve">
<style type="text/css">
	.st0{fill:#9E8D62;}
</style>
<path class="st0" d="M65.9,16.2L65.9,16.2l0,5.4h-0.6v-6.2h0.7l3.6,5.5h0v-5.5h0.6v6.2h-0.7L65.9,16.2z M62,21.6v-6.2h0.6v6.2H62z
	 M55.4,21.6v-6.2h4.2v0.5H56v2.3h3.2v0.5H56v2.5h3.6v0.5H55.4z M49.1,18.8v2.8h-0.6v-6.2H51c0.7,0,1.2,0.1,1.6,0.4s0.5,0.7,0.5,1.3
	c0,0.4-0.1,0.7-0.2,0.9c-0.2,0.2-0.4,0.4-0.8,0.6c0.2,0.1,0.3,0.2,0.4,0.3s0.2,0.3,0.2,0.4c0.1,0.2,0.1,0.3,0.1,0.5
	c0,0.2,0,0.3,0,0.5c0,0.2,0,0.4,0,0.6c0,0.2,0,0.3,0.1,0.4c0,0.1,0,0.2,0.1,0.2s0.1,0.1,0.1,0.1v0.1h-0.7c-0.1-0.1-0.1-0.2-0.1-0.4
	s0-0.4-0.1-0.6c0-0.2,0-0.4,0-0.6s0-0.3,0-0.5c0-0.2-0.1-0.3-0.2-0.4s-0.2-0.2-0.3-0.2c-0.1-0.1-0.2-0.1-0.4-0.1c-0.1,0-0.3,0-0.4,0
	H49.1z M51,18.3c0.2,0,0.4,0,0.6-0.1c0.2,0,0.4-0.1,0.5-0.2s0.2-0.2,0.3-0.4s0.1-0.3,0.1-0.6c0-0.2,0-0.4-0.1-0.6s-0.2-0.3-0.3-0.4
	c-0.1-0.1-0.3-0.1-0.5-0.2c-0.2,0-0.4-0.1-0.6-0.1h-1.9v2.4H51z M43.4,18.9v-0.5h2.7v3.2h-0.5v-1.1c-0.1,0.2-0.2,0.4-0.4,0.5
	c-0.1,0.2-0.3,0.3-0.5,0.4c-0.2,0.1-0.4,0.2-0.6,0.2c-0.2,0.1-0.5,0.1-0.8,0.1c-0.4,0-0.8-0.1-1.1-0.2c-0.3-0.1-0.6-0.3-0.9-0.6
	s-0.4-0.6-0.6-1c-0.1-0.4-0.2-0.9-0.2-1.5c0-0.5,0.1-0.9,0.2-1.3s0.3-0.7,0.5-1c0.2-0.3,0.5-0.5,0.9-0.7c0.4-0.2,0.8-0.3,1.3-0.3
	c0.3,0,0.6,0,0.9,0.1c0.3,0.1,0.5,0.2,0.8,0.4c0.2,0.2,0.4,0.4,0.6,0.6c0.2,0.2,0.3,0.5,0.3,0.9h-0.6c-0.1-0.2-0.1-0.4-0.3-0.6
	c-0.1-0.2-0.3-0.3-0.4-0.5c-0.2-0.1-0.4-0.2-0.6-0.3c-0.2-0.1-0.4-0.1-0.7-0.1c-0.4,0-0.8,0.1-1.1,0.2c-0.3,0.1-0.5,0.3-0.7,0.6
	s-0.3,0.6-0.4,0.9c-0.1,0.4-0.1,0.8-0.1,1.2c0,0.3,0.1,0.7,0.2,1c0.1,0.3,0.2,0.6,0.4,0.8s0.4,0.4,0.7,0.6c0.3,0.1,0.6,0.2,1,0.2
	c0.2,0,0.3,0,0.5-0.1c0.2,0,0.4-0.1,0.5-0.2c0.2-0.1,0.3-0.2,0.5-0.3c0.1-0.1,0.3-0.3,0.4-0.5c0.1-0.2,0.2-0.4,0.2-0.6
	c0-0.2,0.1-0.4,0.1-0.7H43.4z"/>
<g>
	<path class="st0" d="M8.2,18H8c-0.6,0-1.1-0.3-1.3-0.5C6.5,17.7,6.1,18,5.4,18H5.3l0-0.2v-0.4h0.1c0.7,0,1-0.4,1.1-0.5l0.2-0.4
		L7,16.9c0,0,0.3,0.5,1.1,0.5h0.1l0,0.2V18z"/>
</g>
<g>
	<path class="st0" d="M5.6,18H5.4c-0.6,0-1.1-0.3-1.3-0.5C3.9,17.7,3.4,18,2.8,18H2.7l0-0.2v-0.4h0.1c0.7,0,1-0.4,1.1-0.5l0.2-0.4
		l0.2,0.4c0,0,0.3,0.5,1.1,0.5h0.1l0,0.2V18z"/>
</g>
<g>
	<path class="st0" d="M2.9,18H2.8c-0.6,0-1.1-0.3-1.3-0.5C1.3,17.7,0.8,18,0.2,18H0l0-0.2v-0.4l0.2,0c0,0,0,0,0,0
		c0.7,0,1.1-0.5,1.1-0.5l0.2-0.4l0.2,0.4c0,0,0.3,0.5,1.1,0.5h0.1l0,0.2V18z"/>
</g>
<g>
	<path class="st0" d="M24,18h-0.2c-0.6,0-1.1-0.3-1.3-0.5c-0.2,0.2-0.7,0.5-1.3,0.5c-0.7,0-1.1-0.3-1.3-0.5
		c-0.2,0.2-0.7,0.5-1.3,0.5c-0.7,0-1.1-0.3-1.3-0.5C17,17.7,16.6,18,16,18h-0.1l0-0.2v-0.4H16c0.7,0,1-0.4,1.1-0.5l0.1-0.2l0.1-0.2
		l0.2,0.4c0,0,0.3,0.5,1.1,0.5c0.7,0,1-0.4,1.1-0.5l0.1-0.2l0.1-0.2l0.2,0.4c0,0,0.3,0.5,1.1,0.5c0.7,0,1-0.4,1.1-0.5l0.2-0.4
		l0.2,0.4c0,0,0.3,0.5,1.1,0.5H24l0,0.2V18z"/>
</g>
<g>
	<path class="st0" d="M13.6,19.7h-3.2v-4.5h3.2V19.7z M11,19.1h2.1v-3.4H11V19.1z"/>
</g>
<g>
	<path class="st0" d="M16.2,19.7H7.8v-5.3H2.5V6h5.3V0.7h8.5V6h5.3v8.4h-5.3V19.7z M8.3,19.1h7.4v-5.3H21V6.5h-5.3V1.2H8.3v5.3H3.1
		v7.3h5.3V19.1z"/>
</g>
<g>
	<path class="st0" d="M16.2,19.7H7.8V14L12,9.8l4.2,4.2V19.7z M8.3,19.1h7.4v-4.9L12,10.6l-3.7,3.7V19.1z"/>
</g>
<g>
	<polygon class="st0" points="16.2,16.4 15.7,16.4 15.7,12 12,8.4 8.3,12 8.3,16.4 7.8,16.4 7.8,11.8 12,7.6 16.2,11.8 	"/>
</g>
<g>
	<polygon class="st0" points="13.2,8.9 12.6,8.9 12.6,7.4 11.4,7.4 11.4,8.9 10.9,8.9 10.9,6.8 13.2,6.8 	"/>
</g>
<path class="st0" d="M32.9,0H34v1.3h-1.2V0z M32.4,4.6L32.4,4.6L31.7,8H33L32.4,4.6z M30.7,0h1.2v1.3h-1.2V0z M31.8,1.9h1.1l2.1,9.3
	h-1.4l-0.4-2h-1.8l-0.4,2h-1.3L31.8,1.9z"/>
<path class="st0" d="M37.7,6.1h0.8c0.2,0,0.4,0,0.6-0.1c0.1-0.1,0.2-0.2,0.3-0.3c0.1-0.1,0.1-0.3,0.2-0.4c0-0.2,0-0.4,0-0.6
	c0-0.2,0-0.4,0-0.6c0-0.2-0.1-0.3-0.2-0.5c-0.1-0.1-0.2-0.2-0.4-0.3c-0.2-0.1-0.3-0.1-0.6-0.1h-0.7V6.1z M36.4,1.9h2.1
	c1.6,0,2.4,0.9,2.4,2.7c0,0.5-0.1,1-0.3,1.4c-0.2,0.4-0.5,0.7-0.9,0.9l1.4,4.3h-1.4l-1.2-4h-0.8v4h-1.3V1.9z"/>
<polygon class="st0" points="42.2,10.1 44.7,3.2 42.3,3.2 42.3,1.9 46.2,1.9 46.2,3 43.6,10 46.2,10 46.2,11.3 42.2,11.3 "/>
<polygon class="st0" points="49,3.2 47.4,3.2 47.4,1.9 51.9,1.9 51.9,3.2 50.3,3.2 50.3,11.3 49,11.3 "/>
<polygon class="st0" points="53.2,1.9 57.2,1.9 57.2,3.2 54.5,3.2 54.5,5.9 56.8,5.9 56.8,7.2 54.5,7.2 54.5,9.9 57.2,9.9 
	57.2,11.3 53.2,11.3 "/>
<polygon class="st0" points="58.7,1.9 60,1.9 60,5.9 61.7,5.9 61.7,1.9 63,1.9 63,11.3 61.7,11.3 61.7,7.1 60,7.1 60,11.3 
	58.7,11.3 "/>
<path class="st0" d="M67,4.6L67,4.6L66.3,8h1.3L67,4.6z M66.4,1.9h1.1l2.1,9.3h-1.3l-0.4-2h-1.8l-0.4,2h-1.3L66.4,1.9z"/>
<path class="st0" d="M75.1,9.2c0,0.3-0.1,0.6-0.2,0.8c-0.1,0.3-0.3,0.5-0.5,0.7c-0.2,0.2-0.4,0.4-0.7,0.5c-0.3,0.1-0.5,0.2-0.8,0.2
	c-0.3,0-0.6-0.1-0.8-0.2c-0.3-0.1-0.5-0.3-0.7-0.5c-0.2-0.2-0.4-0.4-0.5-0.7c-0.1-0.3-0.2-0.5-0.2-0.8V1.9h1.3V9
	c0,0.3,0.1,0.6,0.2,0.7c0.2,0.2,0.4,0.2,0.6,0.2s0.4-0.1,0.6-0.2c0.2-0.2,0.2-0.4,0.2-0.7V1.9h1.3V9.2z"/>
<path class="st0" d="M81,4.6h-1.3V4.3c0-0.3-0.1-0.6-0.2-0.8c-0.1-0.2-0.4-0.3-0.7-0.3c-0.2,0-0.3,0-0.4,0.1
	c-0.1,0.1-0.2,0.2-0.3,0.3c-0.1,0.1-0.1,0.2-0.1,0.4c0,0.1,0,0.3,0,0.4c0,0.2,0,0.3,0,0.5c0,0.1,0,0.2,0.1,0.3
	c0,0.1,0.1,0.2,0.2,0.2c0.1,0.1,0.2,0.1,0.4,0.2l1,0.4c0.3,0.1,0.5,0.2,0.7,0.4c0.2,0.2,0.3,0.3,0.4,0.5c0.1,0.2,0.2,0.4,0.2,0.7
	c0,0.3,0,0.6,0,0.9c0,0.4,0,0.8-0.1,1.1c-0.1,0.3-0.2,0.6-0.4,0.9c-0.2,0.2-0.4,0.4-0.7,0.6c-0.3,0.1-0.7,0.2-1.1,0.2
	c-0.3,0-0.6-0.1-0.9-0.2c-0.3-0.1-0.5-0.3-0.7-0.5c-0.2-0.2-0.4-0.4-0.5-0.7c-0.1-0.3-0.2-0.6-0.2-0.9V8.7h1.3v0.4
	c0,0.2,0.1,0.5,0.2,0.7c0.1,0.2,0.4,0.3,0.7,0.3c0.2,0,0.4,0,0.5-0.1c0.1-0.1,0.2-0.2,0.3-0.3c0.1-0.1,0.1-0.3,0.1-0.4
	c0-0.2,0-0.4,0-0.6c0-0.2,0-0.4,0-0.6c0-0.2-0.1-0.3-0.1-0.4c-0.1-0.1-0.1-0.2-0.2-0.2c-0.1-0.1-0.2-0.1-0.4-0.2l-1-0.4
	c-0.6-0.2-1-0.6-1.2-0.9c-0.2-0.4-0.3-0.9-0.3-1.5c0-0.4,0-0.7,0.1-1c0.1-0.3,0.2-0.6,0.4-0.8c0.2-0.2,0.4-0.4,0.7-0.5
	c0.3-0.1,0.6-0.2,1-0.2c0.3,0,0.6,0.1,0.9,0.2c0.3,0.1,0.5,0.3,0.7,0.5c0.2,0.2,0.4,0.4,0.4,0.7c0.1,0.2,0.2,0.5,0.2,0.8L81,4.6
	L81,4.6L81,4.6z"/>
<g>
	<rect x="40.5" y="13.8" class="st0" width="29.7" height="0.4"/>
</g>
</svg>
