<?xml version="1.0" encoding="utf-8"?>
<!-- Generator: Adobe Illustrator 21.1.0, SVG Export Plug-In . SVG Version: 6.00 Build 0)  -->
<svg version="1.1" id="Layer_1" xmlns="http://www.w3.org/2000/svg" xmlns:xlink="http://www.w3.org/1999/xlink" x="0px" y="0px"
	 width="34.4px" height="24.2px" viewBox="0 0 34.4 24.2" style="enable-background:new 0 0 34.4 24.2;" xml:space="preserve">
<g>
	<path d="M20.8,10.6v13.6h13.6V10.6H20.8z M33.9,23.7h-6.1v-8.5l1.5,1.5l0.4-0.3l-2.1-2.2l-2,2.2l0.3,0.3l1.5-1.5v8.5h-6V11.1h12.6
		V23.7z"/>
	<path d="M11.1,12.1l-0.3-0.4L0.5,18.8V0.7l12.6,9.7c0.6,0.3,1.3,0.5,2,0.5c0.7,0,1.4-0.2,2.1-0.5l12.5-9.5v7.7h0.5V0H0v19.5h18.6
		V19H1.1L11.1,12.1z M16.9,9.9c-1.1,0.6-2.4,0.6-3.5,0L1.1,0.5h28.3L16.9,9.9z"/>
</g>
</svg>
