<?xml version="1.0" encoding="utf-8"?>
<!-- Generator: Adobe Illustrator 21.1.0, SVG Export Plug-In . SVG Version: 6.00 Build 0)  -->
<svg version="1.1" id="Layer_1" xmlns="http://www.w3.org/2000/svg" xmlns:xlink="http://www.w3.org/1999/xlink" x="0px" y="0px"
	 width="42.3px" height="82px" viewBox="0 0 42.3 82" style="enable-background:new 0 0 42.3 82;" xml:space="preserve">
<path d="M39.4,82H2.9C1.4,82,0,80.7,0,79V2.9C0,1.3,1.3,0,2.9,0h36.4c1.5,0,2.9,1.3,2.9,2.9v76.2C42.2,80.7,40.9,82,39.4,82z
	 M2.9,0.8c-1.1,0-2,0.8-2,2V79c0,1.1,0.8,2,2,2h36.4c1.1,0,2-0.8,2-2l0,0V2.9c0-1.1-0.8-2-2-2l0,0L2.9,0.8z M21.2,78.9
	c-1.4,0-2.5-1.1-2.5-2.5s1.1-2.5,2.5-2.5s2.5,1.1,2.5,2.5l0,0C23.7,77.8,22.6,78.9,21.2,78.9z M21.2,74.8c-0.8,0-1.7,0.7-1.7,1.5
	s0.7,1.7,1.5,1.7c0.8,0,1.7-0.7,1.7-1.5l0,0C22.7,75.5,22,74.8,21.2,74.8z M38.5,71.9H3.6V10.2h34.9V71.9z M4.6,70.9h33.1V11.1H4.6
	V70.9z M25.6,6.4h-9.1c-0.4,0-0.8-0.4-0.8-0.8s0.4-0.8,0.8-0.8h9.1c0.4,0,0.8,0.4,0.8,0.8S26.2,6.4,25.6,6.4L25.6,6.4z M16.5,5.2
	c-0.3,0-0.4,0.1-0.4,0.4S16.3,6,16.5,6l0,0h9.1c0.3,0,0.4-0.1,0.4-0.4c0-0.3-0.1-0.4-0.4-0.4H16.5z"/>
</svg>
