<?xml version="1.0" encoding="utf-8"?>
<!-- Generator: Adobe Illustrator 21.1.0, SVG Export Plug-In . SVG Version: 6.00 Build 0)  -->
<svg version="1.1" id="Layer_1" xmlns="http://www.w3.org/2000/svg" xmlns:xlink="http://www.w3.org/1999/xlink" x="0px" y="0px"
	 width="30.1px" height="58.5px" viewBox="0 0 30.1 58.5" style="enable-background:new 0 0 30.1 58.5;" xml:space="preserve">
<style type="text/css">
	.st0{fill:#9E8D62;}
</style>
<path class="st0" d="M28.1,58.5h-26c-1.1,0-2.1-0.9-2.1-2.1V2.1C0,0.9,0.9,0,2.1,0h26c1.1,0,2.1,0.9,2.1,2.1v54.4
	C30.1,57.6,29.2,58.5,28.1,58.5z M2.1,0.6c-0.8,0-1.4,0.6-1.4,1.4v54.4c0,0.8,0.6,1.4,1.4,1.4h26c0.8,0,1.4-0.6,1.4-1.4c0,0,0,0,0,0
	V2.1c0-0.8-0.6-1.4-1.4-1.4l0,0L2.1,0.6z M15.1,56.3c-1,0-1.8-0.8-1.8-1.8c0-1,0.8-1.8,1.8-1.8c1,0,1.8,0.8,1.8,1.8c0,0,0,0,0,0
	C16.9,55.5,16.1,56.3,15.1,56.3z M15.1,53.4c-0.6,0-1.2,0.5-1.2,1.1s0.5,1.2,1.1,1.2s1.2-0.5,1.2-1.1c0,0,0,0,0,0
	C16.2,53.9,15.7,53.4,15.1,53.4z M27.5,51.3H2.6v-44h24.9V51.3z M3.3,50.6h23.6V7.9H3.3V50.6z M18.3,4.6h-6.5
	c-0.3,0-0.6-0.3-0.6-0.6s0.3-0.6,0.6-0.6h6.5c0.3,0,0.6,0.3,0.6,0.6S18.7,4.6,18.3,4.6L18.3,4.6z M11.8,3.7c-0.2,0-0.3,0.1-0.3,0.3
	c0,0.2,0.1,0.3,0.3,0.3c0,0,0,0,0,0h6.5c0.2,0,0.3-0.1,0.3-0.3c0-0.2-0.1-0.3-0.3-0.3L11.8,3.7z"/>
</svg>
