<?xml version="1.0" encoding="utf-8"?>
<!-- Generator: Adobe Illustrator 21.1.0, SVG Export Plug-In . SVG Version: 6.00 Build 0)  -->
<svg version="1.1" id="Layer_1" xmlns="http://www.w3.org/2000/svg" xmlns:xlink="http://www.w3.org/1999/xlink" x="0px" y="0px"
	 width="130.4px" height="131.2px" viewBox="0 0 130.4 131.2" style="enable-background:new 0 0 130.4 131.2;" xml:space="preserve"
	>
<rect x="36.2" y="90.1" width="58.4" height="2.5"/>
<rect x="36.2" y="101.8" width="58.4" height="2.5"/>
<rect x="36.2" y="113.6" width="58.4" height="2.5"/>
<path d="M22.7,131.2v-26.1H5c-2.8,0-5-2.2-5-5V42.5c0-2.8,2.2-5,5-5h18.1V0h84.2v37.5h18.1c1.4,0,2.7,0.5,3.7,1.5
	c0.9,0.9,1.4,2.2,1.3,3.5l0,57.6c0,2.8-2.2,5-5,5h-17.3v26.1H22.7z M105.6,128.7V77.8H25.2v50.9H105.6z M125.5,102.6
	c1.2,0,2.3-0.9,2.5-2.1l-0.1-0.3l0-57.7c0-1.4-1.1-2.5-2.5-2.5H5c-1.4,0-2.5,1.1-2.5,2.5v57.6c0,1.4,1.1,2.5,2.5,2.5h17.7V75.3h85.5
	v27.3H125.5z M104.9,37.5v-35H25.6v35H104.9z"/>
<path d="M105.6,55.5v-8.6H121v8.6H105.6z M118.5,53v-3.6h-10.4V53H118.5z"/>
</svg>
