<?xml version="1.0" encoding="utf-8"?>
<!-- Generator: Adobe Illustrator 21.1.0, SVG Export Plug-In . SVG Version: 6.00 Build 0)  -->
<svg version="1.1" id="Layer_1" xmlns="http://www.w3.org/2000/svg" xmlns:xlink="http://www.w3.org/1999/xlink" x="0px" y="0px"
	 width="84.5px" height="23.8px" viewBox="0 0 84.5 23.8" style="enable-background:new 0 0 84.5 23.8;" xml:space="preserve">
<path id="Path_3142" d="M14.8,23.5c-0.1,0-0.3,0-0.4,0c-0.1,0-0.2-0.1-0.2-0.2c0-0.1,0.1-0.2,0.2-0.2l0,0c0.2,0,0.5,0,0.7,0
	c0-0.1,0.1-0.2,0.3-0.1c0.1,0,0.2,0.1,0.2,0.2c0,0,0,0,0,0C15.5,23.4,15.2,23.5,14.8,23.5z"/>
<path id="Path_3138" d="M1.4,22.8c-0.1,0-0.3,0-0.4,0c-0.3-0.1-0.6-0.2-0.8-0.5c-0.3-0.6-0.3-1.3,0-1.9c0.4-0.9,1.2-1.6,2.2-1.9
	c0.5-0.1,1,0,1.4,0.3C4.6,14.9,6,11.2,8,7.8c3.5-5.9,7-7.1,9.4-7.1c1.3,0,2.1,0.5,2.4,1.3c0.7,2.3-3.1,7-6.4,10.5
	c-2.9,3.1-6,6-9.3,8.7c0,0.3,0.1,0.6,0.2,0.9c0.1,0.2,0.2,0.2,0.3,0.2c1.9,0,4-1.9,5.2-3.1c0.2-0.3,0.4-0.7,0.7-1
	c0.1-0.1,0.2-0.3,0.4-0.2c0.1,0,0.2,0.1,0.1,0.3c-0.2,0.4-0.5,0.8-0.9,1.1c-0.5,0.8-1,1.7-1.4,2.6C8.8,22,9,21.8,9.2,21.5
	c0.9-1.1,2.2-2.8,4.4-2.1c0.2,0.1,0.4,0.1,0.6,0.2c0.9,0.4,2,0.6,3,0.3c0.1,0,0.2,0,0.3,0.1s0,0.2-0.1,0.3c0,0,0,0,0,0
	C16.2,20.6,15,20.5,14,20l-0.5-0.2c-2-0.6-3.1,0.9-4,1.9c-0.2,0.4-0.6,0.7-0.9,1c-0.1,0.1-0.3,0-0.4-0.1c-0.1-0.1-0.2-0.3,0.7-2
	c-1.3,1.1-2.9,2.2-4.4,2.2c-0.3,0-0.5-0.2-0.6-0.4c-0.1-0.3-0.2-0.5-0.2-0.8c-0.4,0.3-0.8,0.6-1.2,0.9C2.2,22.7,1.8,22.8,1.4,22.8z
	 M2.8,18.9c-0.1,0-0.2,0-0.2,0c-0.9,0.2-1.6,0.8-1.9,1.6c-0.3,0.5-0.3,1-0.1,1.5c0.1,0.2,0.3,0.3,0.5,0.3c0.4,0.1,0.8,0,1.2-0.2
	c0.4-0.3,0.8-0.6,1.3-1c0-0.1,0.1-0.3,0.1-0.4c0-0.3,0-0.7,0.1-1c0-0.2,0-0.4-0.1-0.5C3.4,19,3.1,18.9,2.8,18.9L2.8,18.9z M4.1,19.7
	c0,0.3,0,0.7-0.1,1C9.7,16.1,20.4,5.5,19.3,2.1c-0.2-0.6-0.9-1-2-1c-2.2,0-5.6,1.1-9,6.9C6.2,11.6,4.8,15.6,4.1,19.7L4.1,19.7z"/>
<path id="Path_3139" d="M21.7,23.8L21.7,23.8c-0.1,0-0.2-0.1-0.2-0.2c0.1-0.8,10.7-19.7,12.9-23.5C34.4,0,34.5,0,34.6,0c0,0,0,0,0,0
	c0.1,0.1,0.1,0.2,0.1,0.3c0,0,0,0,0,0c-5.1,9-12.7,22.6-12.8,23.3C21.9,23.7,21.8,23.8,21.7,23.8z"/>
<path id="Path_3140" d="M21.6,14.7c-0.1,0-0.1,0-0.2-0.1c-0.1-0.1-0.1-0.2,0-0.3c0,0,0,0,0,0c1.6-1.1,3.3-1.9,5.2-2.3
	c6.1-1.6,13.5-1.1,18.6-0.4c0.1,0,0.2,0.1,0.2,0.2s-0.1,0.2-0.2,0.2l0,0c-5.1-0.7-12.4-1.2-18.4,0.4c-1.8,0.4-3.6,1.1-5.1,2.2
	C21.7,14.7,21.6,14.7,21.6,14.7z"/>
<path id="Path_3141" d="M42.4,22.9c-0.6,0.1-1.1-0.3-1.2-0.9c0-0.1,0-0.1,0-0.2c0-0.1,0-0.3,0-0.4c-0.7,0.8-1.6,1.3-2.7,1.4
	c-0.4,0.1-0.7-0.1-0.9-0.4c-0.2-0.5-0.2-1.1,0.1-1.6c-0.7,0.5-1.4,1-2.2,1.5c-0.7,0.5-1.7,0.5-2.4,0c-1.1-1.1-0.7-3.7,1-7
	c2.3-4.4,8.1-14.6,8.1-14.7c0.1-0.1,0.2-0.1,0.3-0.1c0.1,0.1,0.1,0.2,0.1,0.3c0,0,0,0,0,0c-0.1,0.1-5.8,10.3-8.1,14.6
	c-1.3,2.4-2.3,5.4-1.1,6.5c0.6,0.4,1.3,0.4,1.9,0c1-0.6,2-1.3,2.8-2.1c0.2-0.3,0.3-0.6,0.4-0.8c0.5-0.8,0.6-0.8,0.7-0.8
	c0.1,0,0.2,0.1,0.2,0.2c0.1,0.2-0.3,0.8-1,1.6c-0.4,0.8-0.8,1.6-0.6,2.1c0,0.1,0.1,0.3,0.6,0.2c1.2-0.2,2.2-0.9,2.9-1.9
	c0.3-0.9,0.9-1.9,1.1-1.9c0.1,0,0.2,0,0.2,0.1c0.1,0.1,0.1,0.2-0.1,0.6c-0.2,0.5-0.5,1-0.9,1.4c-0.2,0.4-0.2,0.9-0.1,1.3
	c0.1,0.2,0.2,0.4,0.7,0.4c0.9-0.1,1.8-0.4,2.6-0.9c0-1.1,0.5-2.1,1.3-2.8c0.9-0.6,1.3-0.2,1.4,0c0.3,0.5-0.1,1.6-1.2,2.4
	c-0.4,0.2-0.7,0.5-1,0.7c0,0,0,0,0,0.1c0.2,0.5,0.7,0.6,1.4,0.5c1.4-0.4,2.6-1.2,3.5-2.3c0.9-1.5,1.1-1.5,1.2-1.5
	c0.1,0,0.2,0.1,0.2,0.2c0,0,0,0.1,0,0.1c-0.3,0.5-0.7,1-1.1,1.5c-0.1,0.1-0.1,0.3-0.2,0.4c-0.2,0.4-0.4,0.8-0.6,1.1
	c1.5-1.4,3.1-2.6,4-2.5c0.1,0,0.2,0.1,0.3,0.2c0.2,0.3,0.1,0.8,0,1.6C54,21.4,54,21.6,54,21.9c0.3-0.2,0.6-0.5,0.9-0.7
	c1.1-0.9,1.6-1.4,2-1.2c0.1,0.1,0.2,0.2,0.3,0.4c0,0.3,0,0.5,0,0.8c0,0.4-0.1,0.7,0.1,0.8c0.2,0.2,0.8,0.2,1.8,0
	c0.6-0.1,1.2-0.3,1.7-0.5c0-1,0.5-2,1.2-2.6c0.3-0.3,0.7-0.3,1.1-0.1c0.2,0.2,0.3,0.5,0.2,0.8c-0.1,0.7-0.7,1.5-2.1,2.1
	c0,0,0,0.1,0,0.1c0.2,0.5,0.9,0.5,1.4,0.4c2.4-0.5,4.6-1.6,6.4-3.2c0.2-0.3,0.5-0.5,0.8-0.7c0.1,0,0.2,0,0.2,0.1c0,0.1,0,0.2,0,0.3
	c0,0-0.3,0.3-0.7,0.7c-0.2,0.3-0.4,0.5-0.5,0.8c-0.5,0.7-0.8,1.5-1.1,2.3c0.3-0.2,0.6-0.5,0.8-0.7c1.1-1.1,3-3,5.4-2.6
	c0.7,0.1,1.6,0.4,2.7,0.8c2.5,0.8,5.8,1.9,7,1.1c0.3-0.2,0.4-0.6,0.4-0.9c0-0.1,0.1-0.2,0.2-0.2s0.2,0.1,0.2,0.2c0,0,0,0,0,0
	c0,0.5-0.2,1-0.6,1.3c-1.3,1-4.5-0.1-7.4-1c-0.9-0.3-1.8-0.6-2.7-0.8c-2.1-0.4-3.8,1.3-5,2.5c-0.3,0.4-0.7,0.7-1.1,0.9
	c-0.1,0.1-0.3,0-0.4,0c-0.2-0.1-0.1-0.4-0.1-0.6c0.2-0.7,0.5-1.4,1-2.1c-1.7,1.2-3.6,2.1-5.6,2.5c-1.3,0.3-1.7-0.3-1.9-0.6
	c0,0,0-0.1,0-0.1c-0.6,0.2-1.1,0.4-1.7,0.5c-1.2,0.3-1.8,0.2-2.2-0.1s-0.3-0.7-0.2-1.2c0-0.2,0-0.4,0-0.7v0
	c-0.6,0.3-1.1,0.7-1.6,1.1c-0.3,0.3-0.7,0.6-1,0.8c-0.1,0.1-0.3,0.1-0.4,0c-0.2-0.2-0.2-0.6,0-1.3c0.1-0.4,0.2-0.9,0.1-1.3
	c0,0,0,0,0,0c-0.9-0.1-3.1,1.9-3.9,2.6c-0.1,0.2-0.3,0.3-0.5,0.4c-0.1,0-0.2,0-0.2,0c-0.1-0.1-0.1-0.3,0-0.4c0.1-0.2,0.3-0.6,0.5-1
	c-0.7,0.7-1.7,1.2-2.7,1.4C45.6,23,45.2,22.4,45,22v0C44.2,22.5,43.3,22.8,42.4,22.9z M47.1,18.9c-0.2,0-0.4,0.1-0.6,0.2
	c-0.7,0.5-1.1,1.3-1.2,2.2c0.3-0.2,0.5-0.3,0.8-0.5c1-0.7,1.3-1.5,1.1-1.8C47.3,18.9,47.2,18.9,47.1,18.9z M62.6,18.9
	c-0.1,0-0.3,0.1-0.4,0.1c-0.6,0.5-1,1.3-1.1,2.1c1.1-0.5,1.6-1.2,1.7-1.7c0-0.2,0-0.3-0.1-0.5C62.7,18.9,62.7,18.9,62.6,18.9z"/>
</svg>
